<svg id="Слой_1" data-name="Слой 1" xmlns="http://www.w3.org/2000/svg" viewBox="0 0 199.16 204.6"><defs><style>.cls-1,.cls-2{fill:#130f10;}.cls-2{font-size:37.03px;font-family:Comfortaa-SemiBold, Comfortaa;font-weight:600;}</style></defs><title>1</title><path class="cls-1" d="M161.33,114.23V75.6c-.33-8.07-7.06-11.85-14.72-8.84-8.14,3.2-17.48,6.3-25.62,9.5-4.3,1.69-3.65,1.8-3.68-2.83-.08-12.12.26-24.25,0-36.36-.17-7.85-3.9-12.27-11.21-14.79-11.58-4-24.16-8.38-35.8-12.18a14.14,14.14,0,0,0-6.57-.28c-7.5,1.32-18.41,3.72-25.91,5.06V126.19l48,17.35c8.75,2.85,15.45-2.2,15.44-11.34q0-19.86-.57-39.72c-.18-6.66-3.32-12-9.64-14.34-8.77-3.26-20.51-6.68-29.45-9.5l-7,2.77L85,82.14c4,1.34,7.6,3.75,8.7,7.58,1,3.35.83,6.07.93,9,.27,8.36,0,16.74.23,25.11.23,9.28-5.32,12.1-12.93,9.68-10.83-3.43-26.36-9.85-37.21-13.23V20.62c6.47-1.4,14.65-3.27,21.14-4.55a9.79,9.79,0,0,1,4.77.37C80.8,19.93,92,23.78,102,27.6c5.49,2.08,9.3,5.74,9.22,12.41V88.28c9.47-3.91,26.81-10.31,36.37-14,4.88-1.87,7.21-.24,7.21,5.89v37.25Z" transform="translate(0.01)"/><path class="cls-1" d="M148.8,11.93C135.55,8.29,105.6,0,105.6,0l-7,2.77,47.73,14.44c6.88,2.13,8.32,5.91,8.49,13.19V54.54l6.51-3.26V28.19C161.21,19.12,157.6,14.35,148.8,11.93Z" transform="translate(0.01)"/><polygon class="cls-1" points="117.76 93.69 111.25 96.11 111.25 138.94 117.76 135.73 117.76 93.69"/><text class="cls-2" transform="translate(0 193.9)">«Бек-Нур»</text></svg>